<svg width="24" height="25" viewBox="0 0 24 25" fill="none" xmlns="http://www.w3.org/2000/svg">
<path d="M12 0.5C5.38331 0.5 0 5.88331 0 12.5C0 19.1167 5.38331 24.5 12 24.5C18.6167 24.5 24 19.1167 24 12.5C24 5.88331 18.6167 0.5 12 0.5ZM12 3.5C16.6877 3.5 20.5449 7.10306 20.9587 11.6847L16.3259 11.3285C15.8065 9.41714 14.0737 8 12 8C9.80576 8 7.97946 9.58039 7.58478 11.6614L3.00678 12.366C3.07947 7.46534 7.08234 3.5 12 3.5ZM10.5 21.3646C7.19521 20.8066 4.49973 18.4484 3.46308 15.3309L8.05739 14.6239C8.58354 15.596 9.44661 16.3479 10.5 16.7236L10.5 21.3646ZM12 14C11.1715 14 10.5 13.3284 10.5 12.5C10.5 11.6716 11.1715 11 12 11C12.8285 11 13.5 11.6716 13.5 12.5C13.5 13.3284 12.8285 14 12 14ZM13.5 21.3646V16.7237C14.6632 16.3089 15.6085 15.4414 16.1074 14.3207L20.7231 14.6755C19.865 18.113 17.0323 20.7682 13.5 21.3646Z" fill="white"/>
</svg>
