<svg width="18" height="16" viewBox="0 0 18 16" fill="none" xmlns="http://www.w3.org/2000/svg">
<path d="M14.9973 8.99924C14.994 8.99924 14.9906 9 14.9873 9C11.7715 9 9.15399 6.38327 9.15399 3.16672C9.15399 2.28247 9.35739 1.44659 9.71155 0.694946C9.52814 0.677551 9.34229 0.666718 9.15399 0.666718C5.9324 0.666718 3.32071 3.27826 3.32071 6.5V8.8233C3.32071 10.4725 2.59821 12.0292 1.33066 13.1008C0.908142 13.4617 0.720612 14.0366 0.872284 14.5975C1.04898 15.25 1.69397 15.6667 2.3707 15.6667H15.9332C16.6432 15.6667 17.3124 15.2067 17.4565 14.5109C17.5681 13.9725 17.3765 13.435 16.959 13.0842C15.7473 12.0684 15.0465 10.5758 14.9973 8.99924Z" fill="white"/>
</svg>



