<svg width="12" height="8" viewBox="0 0 12 8" fill="none" xmlns="http://www.w3.org/2000/svg">
<path d="M0.700196 1.19834C0.88353 1.01501 1.11686 0.923339 1.4002 0.923339C1.68353 0.923339 1.91686 1.01501 2.1002 1.19834L6.0002 5.09834L9.9002 1.19834C10.0835 1.01501 10.3169 0.92334 10.6002 0.92334C10.8835 0.92334 11.1169 1.01501 11.3002 1.19834C11.4835 1.38167 11.5752 1.61501 11.5752 1.89834C11.5752 2.18167 11.4835 2.41501 11.3002 2.59834L6.7002 7.19834C6.6002 7.29834 6.49186 7.36934 6.3752 7.41134C6.25853 7.45267 6.13353 7.47334 6.0002 7.47334C5.86686 7.47334 5.74186 7.45267 5.6252 7.41134C5.50853 7.36934 5.4002 7.29834 5.3002 7.19834L0.700196 2.59834C0.516863 2.41501 0.425195 2.18167 0.425195 1.89834C0.425195 1.61501 0.516863 1.38167 0.700196 1.19834Z" fill="white"/>
</svg>

