<svg width="56" height="38" viewBox="0 0 56 38" fill="none" xmlns="http://www.w3.org/2000/svg">
<path d="M49.913 15.348H45.7958L38.8275 1.41248C38.6217 0.99978 38.2005 0.739258 37.7391 0.739258H12.1739C10.8311 0.739258 9.73913 1.83126 9.73913 3.17404V15.4198C4.26939 16.0285 0 20.6753 0 26.3045V29.9567C0 31.2994 1.092 32.3914 2.43478 32.3914H7.4273C7.99339 35.1659 10.4513 37.261 13.3913 37.261C16.3313 37.261 18.7892 35.1659 19.3553 32.3914H36.6447C37.2108 35.1659 39.6687 37.261 42.6087 37.261C45.5487 37.261 48.0066 35.1659 48.5727 32.3914H53.5652C54.908 32.3914 56 31.2994 56 29.9567V21.4349C56 18.0786 53.2694 15.348 49.913 15.348ZM36.9868 3.17404L43.0737 15.348H12.1739V3.17404H36.9868ZM2.43478 26.3045C2.43478 21.6053 6.25739 17.7827 10.9565 17.7827H41.3913V25.21C39.0101 25.6958 37.1304 27.5754 36.6447 29.9567H19.3553C18.7892 27.1822 16.3313 25.0871 13.3913 25.0871C10.4513 25.0871 7.99339 27.1822 7.4273 29.9567H2.43478V26.3045ZM13.3913 34.8262C11.3777 34.8262 9.73913 33.1876 9.73913 31.174C9.73913 29.1605 11.3777 27.5219 13.3913 27.5219C15.4049 27.5219 17.0435 29.1605 17.0435 31.174C17.0435 33.1876 15.4049 34.8262 13.3913 34.8262ZM42.6087 34.8262C40.5951 34.8262 38.9565 33.1876 38.9565 31.174C38.9565 29.1605 40.5951 27.5219 42.6087 27.5219C44.6223 27.5219 46.2609 29.1605 46.2609 31.174C46.2609 33.1876 44.6223 34.8262 42.6087 34.8262ZM53.5652 29.9567H48.5727C48.087 27.5754 46.2073 25.6958 43.8261 25.21V17.7827H49.913C51.9266 17.7827 53.5652 19.4213 53.5652 21.4349V29.9567Z" fill="#4F565E"/>
</svg>
