<svg width="24" height="25" viewBox="0 0 24 25" fill="none" xmlns="http://www.w3.org/2000/svg">
<path d="M12 0.5C5.38328 0.5 0 5.88328 0 12.5C0 19.1168 5.38328 24.5001 12 24.5001C18.6168 24.5001 24.0001 19.1168 24.0001 12.5C24.0001 5.88328 18.6167 0.5 12 0.5ZM7.5 9.50001C7.5 8.67155 8.17155 8 9.00001 8C9.82846 8 10.5 8.67155 10.5 9.50001C10.5 10.3284 9.82846 11 9.00001 11C8.17155 11 7.5 10.3284 7.5 9.50001ZM11.9231 17.4746L9.07693 16.5254L12.077 7.52539L14.9232 8.47461C14.9231 8.47461 11.9231 17.4746 11.9231 17.4746ZM15 17C14.1715 17 13.5 16.3284 13.5 15.5C13.5 14.6715 14.1715 14 15 14C15.8285 14 16.5 14.6715 16.5 15.5C16.5 16.3284 15.8285 17 15 17Z" fill="white"/>
</svg>
