<svg width="24" height="25" viewBox="0 0 24 25" fill="none" xmlns="http://www.w3.org/2000/svg">
<path d="M23.4302 15.875L20.9043 13.7607C20.9687 13.3198 21 12.9053 21 12.5C21 12.0947 20.9687 11.6802 20.9043 11.2393L23.4302 9.125C23.6167 8.96923 23.6641 8.70214 23.5425 8.49172L21.2427 4.50828C21.1211 4.29833 20.8667 4.20556 20.6382 4.28853L17.5488 5.41742C16.8882 4.90034 16.1543 4.47795 15.3608 4.15911L14.7925 0.913484C14.7505 0.674328 14.5425 0.5 14.2998 0.5H9.70021C9.45754 0.5 9.24951 0.674328 9.20755 0.913578L8.6392 4.1592C7.84574 4.47805 7.11187 4.90044 6.45121 5.41752L3.36182 4.28858C3.13476 4.20411 2.87845 4.29786 2.75732 4.50833L0.457493 8.49172C0.335899 8.70219 0.38329 8.96928 0.569805 9.125L3.09566 11.2393C3.03126 11.6802 2.99999 12.0947 2.99999 12.5C2.99999 12.9053 3.03126 13.3198 3.09571 13.7607L0.569805 15.875C0.38329 16.0308 0.335899 16.2979 0.457493 16.5083L2.75732 20.4917C2.87938 20.7021 3.13621 20.7949 3.36182 20.7114L6.45116 19.5825C7.11182 20.0996 7.8457 20.522 8.63915 20.8408L9.20751 24.0865C9.24951 24.3257 9.45749 24.5 9.70016 24.5H14.2998C14.5424 24.5 14.7505 24.3257 14.7924 24.0865L15.3608 20.8408C16.1542 20.522 16.8881 20.0996 17.5488 19.5825L20.6381 20.7114C20.8652 20.793 21.121 20.7021 21.2426 20.4917L23.5424 16.5083C23.664 16.2979 23.6167 16.0308 23.4302 15.875ZM12 17.5C9.24313 17.5 6.99998 15.2569 6.99998 12.5C6.99998 9.74314 9.24313 7.49998 12 7.49998C14.7569 7.49998 17 9.74319 17 12.5C17 15.2568 14.7569 17.5 12 17.5Z" fill="#F3F7FA"/>
</svg>
