<svg width="24" height="25" viewBox="0 0 24 25" fill="none" xmlns="http://www.w3.org/2000/svg">
<path d="M23.0689 11.8885L12.799 1.61861C12.0884 0.908017 11.1051 0.5 10.0994 0.5H2.18184C0.979058 0.5 0 1.4785 0 2.68184V10.5989C0 11.6179 0.397381 12.5773 1.11861 13.299L11.3885 23.5689C11.9893 24.1693 12.7883 24.5 13.6363 24.5C14.4843 24.5 15.2833 24.1692 15.8842 23.5689L23.0689 16.3842C23.6697 15.7845 23.9999 14.986 23.9999 14.1364C23.9999 13.2868 23.6698 12.4883 23.0689 11.8885ZM4.36362 7.04546C3.16084 7.04546 2.18179 6.06696 2.18179 4.86362C2.18179 3.66028 3.16084 2.68179 4.36362 2.68179C5.5664 2.68179 6.54546 3.66028 6.54546 4.86362C6.54546 6.06696 5.5664 7.04546 4.36362 7.04546ZM17.2202 17.7207C17.1137 17.8272 16.9741 17.8805 16.8345 17.8805C16.695 17.8805 16.5554 17.8272 16.4488 17.7207L16.0632 17.335L14.9063 18.492C14.7997 18.5986 14.6601 18.6518 14.5206 18.6518C14.381 18.6518 14.2415 18.5986 14.1349 18.492C13.9218 18.279 13.9218 17.9338 14.1349 17.7207L15.6776 16.1781C16.3157 15.54 16.3157 14.5018 15.6776 13.8637C15.0597 13.2458 13.9815 13.2458 13.3636 13.8637C12.3324 14.8949 10.5362 14.8939 9.50708 13.8637C8.57588 12.9325 8.46057 11.4896 9.16042 10.4313L8.73573 10.0066C8.52265 9.79353 8.52265 9.44836 8.73573 9.23532C8.94882 9.02224 9.29399 9.02224 9.50702 9.23532L9.89269 9.621L11.0497 8.46403C11.2627 8.25095 11.6079 8.25095 11.8209 8.46403C12.034 8.67712 12.034 9.02229 11.8209 9.23532L10.2784 10.7779C9.64029 11.416 9.64029 12.4542 10.2784 13.0923C10.8963 13.7108 11.9745 13.7108 12.5923 13.0923C13.6556 12.0291 15.3857 12.0291 16.4489 13.0923C17.3801 14.0235 17.4954 15.4664 16.7955 16.5247L17.2202 16.9494C17.4333 17.1625 17.4333 17.5077 17.2202 17.7207Z" fill="#F3F7FA"/>
</svg>
